<?xml version="1.0" ?><svg height="32" id="svg2" version="1.1" viewBox="0 0 32 32.000001" width="32" xmlns="http://www.w3.org/2000/svg" xmlns:cc="http://creativecommons.org/ns#" xmlns:dc="http://purl.org/dc/elements/1.1/" xmlns:inkscape="http://www.inkscape.org/namespaces/inkscape" xmlns:rdf="http://www.w3.org/1999/02/22-rdf-syntax-ns#" xmlns:sodipodi="http://sodipodi.sourceforge.net/DTD/sodipodi-0.dtd" xmlns:svg="http://www.w3.org/2000/svg"><defs id="defs4"/><g id="layer1" transform="translate(0,-1020.3622)"><path d="M 4.4882812 3 A 0.50004994 0.50004994 0 0 0 4.4375 3.0019531 L 1.4980469 3.0019531 A 0.50004997 0.50004997 0 0 0 1.4472656 3.0019531 A 0.50064427 0.50064427 0 1 0 1.4980469 4.0019531 L 4.1054688 4.0019531 L 9.90625 24.636719 A 0.50004994 0.50004994 0 0 0 10.388672 25 L 27.476562 25 A 0.50004994 0.50004994 0 1 0 27.476562 24 L 10.767578 24 L 10.220703 22.058594 L 25.460938 22.058594 A 0.50004997 0.50004997 0 0 0 25.941406 21.695312 L 29.980469 7.6367188 A 0.50004997 0.50004997 0 0 0 29.5 7 L 5.9863281 7 L 4.9863281 3.4433594 A 0.50004997 0.50004997 0 0 0 4.9863281 3.4414062 A 0.50004997 0.50004997 0 0 0 4.6835938 3.0410156 A 0.50004994 0.50004994 0 0 0 4.6640625 3.0332031 A 0.50004997 0.50004997 0 0 0 4.6367188 3.0234375 A 0.50004994 0.50004994 0 0 0 4.4882812 3 z M 6.2675781 8 L 28.835938 8 L 25.083984 21.058594 L 9.9394531 21.058594 L 6.2675781 8 z M 19.03125 10.025391 C 18.834748 10.025247 18.638836 10.051612 18.447266 10.101562 C 17.680985 10.301363 17.006913 10.874084 16.533203 11.708984 C 16.299345 12.121176 16.124268 12.570914 16.005859 13.041016 L 15.027344 13.041016 L 14.601562 14.041016 L 15.851562 14.041016 C 15.825284 14.374407 15.825901 14.707777 15.853516 15.041016 L 14.925781 15.041016 L 14.501953 16.041016 L 16.013672 16.041016 C 16.131987 16.501756 16.303643 16.945018 16.533203 17.349609 C 17.006913 18.184609 17.680985 18.755278 18.447266 18.955078 C 19.213546 19.154878 20.048036 18.955053 20.720703 18.376953 L 21.101562 18.050781 L 20.451172 17.291016 L 20.072266 17.615234 C 19.607165 18.012334 19.151083 18.106081 18.699219 17.988281 C 18.247355 17.870481 17.775064 17.508969 17.404297 16.855469 C 17.264491 16.609052 17.159355 16.329735 17.072266 16.041016 L 19.076172 16.041016 L 19.501953 15.041016 L 16.876953 15.041016 C 16.846479 14.709374 16.846149 14.372978 16.875 14.041016 L 19.175781 14.041016 L 19.601562 13.041016 L 17.0625 13.041016 C 17.15064 12.741947 17.259996 12.45551 17.404297 12.201172 C 17.775064 11.547672 18.247355 11.188213 18.699219 11.070312 C 19.151083 10.952513 19.607165 11.044306 20.072266 11.441406 L 20.451172 11.765625 L 21.101562 11.005859 L 20.720703 10.681641 C 20.216203 10.250841 19.620756 10.025822 19.03125 10.025391 z M 23.984375 25.990234 C 22.88397 25.990234 21.984392 26.8977 21.984375 28 C 21.984392 29.1023 22.88397 30.009766 23.984375 30.009766 C 25.08478 30.009766 25.984358 29.1023 25.984375 28 C 25.984358 26.8977 25.08478 25.990234 23.984375 25.990234 z M 12.984375 26.001953 C 11.88397 26.001953 10.984392 26.909419 10.984375 28.011719 C 10.984392 29.114019 11.88397 30.021484 12.984375 30.021484 C 14.08478 30.021484 14.984358 29.114019 14.984375 28.011719 C 14.984358 26.909419 14.08478 26.001953 12.984375 26.001953 z M 23.984375 26.990234 C 24.540806 26.990234 24.984366 27.436553 24.984375 28.001953 C 24.983375 28.566353 24.540158 29.011719 23.984375 29.011719 C 23.427944 29.011719 22.984384 28.5654 22.984375 28 C 22.985375 27.4356 23.428593 26.990234 23.984375 26.990234 z M 12.984375 27.001953 C 13.540806 27.001953 13.984366 27.446419 13.984375 28.011719 C 13.984366 28.577119 13.540806 29.021484 12.984375 29.021484 C 12.427944 29.021484 11.984384 28.577119 11.984375 28.011719 C 11.984384 27.446419 12.427944 27.001953 12.984375 27.001953 z " id="path5617-44-0-3-5-90" style="color:#000000;font-style:normal;font-variant:normal;font-weight:normal;font-stretch:normal;font-size:medium;line-height:normal;font-family:sans-serif;text-indent:0;text-align:start;text-decoration:none;text-decoration-line:none;text-decoration-style:solid;text-decoration-color:#000000;letter-spacing:normal;word-spacing:normal;text-transform:none;direction:ltr;block-progression:tb;writing-mode:lr-tb;baseline-shift:baseline;text-anchor:start;white-space:normal;clip-rule:nonzero;display:inline;overflow:visible;visibility:visible;opacity:1;isolation:auto;mix-blend-mode:normal;color-interpolation:sRGB;color-interpolation-filters:linearRGB;solid-color:#000000;solid-opacity:1;fill:#000000;fill-opacity:1;fill-rule:evenodd;stroke:none;stroke-width:1px;stroke-linecap:butt;stroke-linejoin:miter;stroke-miterlimit:4;stroke-dasharray:none;stroke-dashoffset:0;stroke-opacity:1;color-rendering:auto;image-rendering:auto;shape-rendering:auto;text-rendering:auto;enable-background:accumulate" transform="translate(0,1020.3622)"/></g></svg>