<?xml version="1.0" ?><!DOCTYPE svg  PUBLIC '-//W3C//DTD SVG 1.1//EN'  'http://www.w3.org/Graphics/SVG/1.1/DTD/svg11.dtd'><svg enable-background="new 0 0 64 64" height="64px" id="Icons" version="1.1" viewBox="0 0 64 64" width="64px" xml:space="preserve" xmlns="http://www.w3.org/2000/svg" xmlns:xlink="http://www.w3.org/1999/xlink"><g id="security"><g><path d="M30,48.867V52c0,1.1,0.9,2,2,2s2-0.9,2-2v-3.133c0.904-0.633,1.5-1.679,1.5-2.867    c0-1.934-1.567-3.5-3.5-3.5s-3.5,1.566-3.5,3.5C28.5,47.188,29.096,48.234,30,48.867z M32,43.5c1.379,0,2.5,1.121,2.5,2.5    c0,0.813-0.401,1.578-1.073,2.048L33,48.347v0.521V52c0,0.552-0.449,1-1,1s-1-0.448-1-1v-3.133v-0.521l-0.427-0.299    C29.901,47.578,29.5,46.813,29.5,46C29.5,44.621,30.621,43.5,32,43.5z" fill="#37474F"/><path d="M13,30v29h38V30H13z M14,37l1-3h5l-2,6h-4V37z M42,40h-5l2-6h5L42,40z M45,34h5l-2,6h-5L45,34z M36,40h-5    l2-6h5L36,40z M30,40h-5l2-6h5L30,40z M24,40h-5l2-6h5L24,40z M50,58H14V41h36V58z M50,40h-1l1-3V40z M14,33v-2h36v2H14z" fill="#37474F"/><path d="M17,21c0-8.271,6.729-15,15-15s15,6.729,15,15v8h1v-8c0-8.837-7.164-16-16-16s-16,7.163-16,16v8h1V21z" fill="#37474F"/><path d="M43,29v-8c0-6.065-4.935-11-11-11s-11,4.935-11,11v8h1v-8c0-5.522,4.477-10,10-10s10,4.478,10,10v8H43z" fill="#37474F"/></g></g></svg>